<svg width="42" height="39" viewBox="0 0 42 39" fill="none" xmlns="http://www.w3.org/2000/svg">
<path d="M11 11.7156L1 21.7156L11 31.7156" stroke="black" stroke-width="2" stroke-linecap="round" stroke-linejoin="round"/>
<path d="M31 11.7156L41 21.7156L31 31.7156" stroke="black" stroke-width="2" stroke-linecap="round" stroke-linejoin="round"/>
<path d="M24.5349 4.32966L15.9481 36.3761C15.8314 36.8115 15.3838 37.07 14.9483 36.9533C14.5129 36.8366 14.2544 36.389 14.3711 35.9535L22.9579 3.9071C23.0746 3.47162 23.5222 3.21319 23.9577 3.32987C24.3932 3.44656 24.6516 3.89418 24.5349 4.32966Z" fill="black"/>
<path d="M22.9579 3.9071C23.0746 3.47162 23.5222 3.21319 23.9577 3.32987C24.3932 3.44656 24.6516 3.89418 24.5349 4.32966L23.4891 8.23279L21.9121 7.81023L22.9579 3.9071Z" fill="#D9D9D9"/>
<path d="M25.6948 6.30951L28.8488 7.15463" stroke="black" stroke-linecap="round"/>
<path d="M17.8096 4.19672L20.9637 5.04184" stroke="black" stroke-linecap="round"/>
<path d="M19.6457 0.49826L21.2833 3.30751" stroke="black" stroke-linecap="round"/>
<path d="M17.5865 8.18353L20.4093 6.56946" stroke="black" stroke-linecap="round"/>
<path d="M25.2756 7.87344L26.9133 10.6827" stroke="black" stroke-linecap="round"/>
<path d="M26.1497 4.61148L28.9725 2.99741" stroke="black" stroke-linecap="round"/>
</svg>
